<svg xmlns="http://www.w3.org/2000/svg" viewBox="0 0 1366 15"><defs><style>.cls-1{fill:none;stroke:#d3e3fb;stroke-miterlimit:10;stroke-width:2px;}</style></defs><title>battleship</title><g id="Layer_5" data-name="Layer 5"><path class="cls-1" d="M2,1.5c6.76,0,6.76,12,13.51,12S22.27,1.5,29,1.5s6.75,12,13.51,12,6.76-12,13.51-12,6.76,12,13.51,12,6.76-12,13.52-12,6.75,12,13.51,12,6.76-12,13.51-12,6.76,12,13.52,12,6.75-12,13.51-12,6.75,12,13.51,12,6.76-12,13.51-12,6.76,12,13.52,12,6.76-12,13.51-12,6.76,12,13.51,12,6.76-12,13.52-12,6.75,12,13.51,12,6.76-12,13.52-12,6.75,12,13.51,12,6.76-12,13.51-12,6.76,12,13.51,12,6.76-12,13.52-12,6.76,12,13.51,12,6.76-12,13.52-12,6.75,12,13.51,12,6.76-12,13.51-12,6.76,12,13.52,12,6.75-12,13.51-12,6.76,12,13.51,12,6.76-12,13.52-12,6.76,12,13.51,12,6.76-12,13.52-12,6.75,12,13.51,12,6.76-12,13.51-12,6.76,12,13.52,12,6.76-12,13.51-12,6.76,12,13.52,12,6.75-12,13.51-12,6.76,12,13.52,12,6.75-12,13.51-12,6.76,12,13.51,12,6.76-12,13.52-12,6.76,12,13.51,12,6.76-12,13.52-12,6.75,12,13.51,12,6.76-12,13.51-12,6.75,12,13.51,12,6.75-12,13.51-12,6.76,12,13.51,12,6.76-12,13.52-12,6.75,12,13.51,12,6.75-12,13.51-12,6.75,12,13.51,12,6.76-12,13.52-12,6.75,12,13.51,12,6.75-12,13.51-12,6.76,12,13.51,12,6.76-12,13.52-12,6.75,12,13.51,12,6.76-12,13.51-12,6.76,12,13.52,12,6.75-12,13.51-12,6.76,12,13.51,12,6.76-12,13.52-12,6.76,12,13.51,12,6.76-12,13.52-12,6.76,12,13.51,12,6.76-12,13.52-12,6.76,12,13.51,12,6.76-12,13.52-12,6.76,12,13.51,12,6.76-12,13.52-12,6.76,12,13.52,12,6.75-12,13.51-12,6.76,12,13.52,12,6.76-12,13.52-12,6.75,12,13.51,12,6.76-12,13.52-12,6.76,12,13.52,12,6.75-12,13.51-12,6.76,12,13.52,12,6.76-12,13.52-12,6.76,12,13.51,12,6.76-12,13.52-12,6.76,12,13.52,12,6.76-12,13.51-12,6.76,12,13.52,12,6.76-12,13.52-12,6.76,12,13.51,12,6.76-12,13.52-12,6.76,12,13.52,12,6.76-12,13.52-12,6.76,12,13.52,12,6.76-12,13.52-12,6.76,12,13.52,12,6.75-12,13.51-12,6.76,12,13.52,12,6.76-12,13.52-12,6.76,12,13.52,12,6.77-12,13.53-12,6.77,12,13.53,12"/></g></svg>