<svg xmlns="http://www.w3.org/2000/svg" viewBox="0 0 1785 25"><defs><style>.cls-1{fill:#fff;}</style></defs><title>battleship</title><g id="bg"><path class="cls-1" d="M1190,2h59.5c-7.72,0-11.58,5.92-15.31,11.65s-7.29,11.17-14.45,11.17-10.68-5.42-14.43-11.17S1197.72,2,1190,2Z"/><path class="cls-1" d="M1249.53,2H1309c-7.72,0-11.58,5.92-15.31,11.65s-7.28,11.17-14.44,11.17-10.69-5.42-14.44-11.17S1257.23,2,1249.53,2Z"/><path class="cls-1" d="M1309,2h59.46c-7.72,0-11.57,5.92-15.31,11.65s-7.28,11.17-14.44,11.17-10.68-5.42-14.43-11.17S1316.72,2,1309,2Z"/><path class="cls-1" d="M1368.51,2H1428c-7.71,0-11.57,5.92-15.31,11.65s-7.27,11.17-14.43,11.17-10.69-5.42-14.43-11.17S1376.2,2,1368.51,2Z"/><path class="cls-1" d="M1428,2h59.44c-7.72,0-11.58,5.92-15.31,11.65s-7.28,11.17-14.43,11.17S1447,19.4,1443.27,13.65,1435.68,2,1428,2Z"/><path class="cls-1" d="M1487.47,2h59.45c-7.72,0-11.57,5.92-15.3,11.65s-7.29,11.17-14.43,11.17-10.7-5.42-14.45-11.17S1495.17,2,1487.47,2Z"/><path class="cls-1" d="M1547,2h59.46c-7.72,0-11.58,5.92-15.31,11.65s-7.29,11.17-14.44,11.17S1566,19.4,1562.22,13.65,1554.65,2,1547,2Z"/><path class="cls-1" d="M1606.44,2h59.45c-7.72,0-11.58,5.92-15.31,11.65s-7.28,11.17-14.44,11.17-10.68-5.42-14.43-11.17S1614.13,2,1606.44,2Z"/><path class="cls-1" d="M1665.92,2h59.44c-7.71,0-11.56,5.92-15.3,11.65s-7.28,11.17-14.43,11.17-10.7-5.42-14.44-11.17S1673.62,2,1665.92,2Z"/><path class="cls-1" d="M1725.4,2h59.44c-7.72,0-11.58,5.92-15.3,11.65s-7.28,11.17-14.44,11.17-10.69-5.42-14.43-11.17S1733.09,2,1725.4,2Z"/><path class="cls-1" d="M595,2h59.5c-7.72,0-11.58,5.92-15.31,11.65s-7.29,11.17-14.45,11.17-10.68-5.42-14.43-11.17S602.72,2,595,2Z"/><path class="cls-1" d="M654.53,2H714c-7.72,0-11.58,5.92-15.31,11.65s-7.28,11.17-14.44,11.17S673.55,19.4,669.8,13.65,662.23,2,654.53,2Z"/><path class="cls-1" d="M714,2h59.46c-7.72,0-11.57,5.92-15.31,11.65s-7.28,11.17-14.44,11.17S733.05,19.4,729.3,13.65,721.72,2,714,2Z"/><path class="cls-1" d="M773.51,2H833c-7.71,0-11.57,5.92-15.31,11.65s-7.27,11.17-14.43,11.17-10.69-5.42-14.43-11.17S781.2,2,773.51,2Z"/><path class="cls-1" d="M833,2h59.44c-7.72,0-11.58,5.92-15.31,11.65s-7.28,11.17-14.43,11.17S852,19.4,848.27,13.65,840.68,2,833,2Z"/><path class="cls-1" d="M892.47,2h59.45c-7.72,0-11.57,5.92-15.3,11.65s-7.29,11.17-14.43,11.17-10.7-5.42-14.45-11.17S900.17,2,892.47,2Z"/><path class="cls-1" d="M952,2h59.46c-7.72,0-11.58,5.92-15.31,11.65s-7.29,11.17-14.44,11.17S971,19.4,967.22,13.65,959.65,2,952,2Z"/><path class="cls-1" d="M1011.44,2h59.45c-7.72,0-11.58,5.92-15.31,11.65s-7.28,11.17-14.44,11.17-10.68-5.42-14.43-11.17S1019.13,2,1011.44,2Z"/><path class="cls-1" d="M1070.92,2h59.44c-7.71,0-11.56,5.92-15.3,11.65s-7.28,11.17-14.43,11.17-10.7-5.42-14.44-11.17S1078.62,2,1070.92,2Z"/><path class="cls-1" d="M1130.4,2h59.44c-7.72,0-11.58,5.92-15.3,11.65s-7.28,11.17-14.44,11.17-10.69-5.42-14.43-11.17S1138.09,2,1130.4,2Z"/><path class="cls-1" d="M0,2H59.5C51.78,2,47.92,7.92,44.19,13.65S36.9,24.82,29.74,24.82,19.06,19.4,15.31,13.65,7.72,2,0,2Z"/><path class="cls-1" d="M59.53,2H119c-7.72,0-11.58,5.92-15.31,11.65S96.4,24.82,89.24,24.82,78.55,19.4,74.8,13.65,67.23,2,59.53,2Z"/><path class="cls-1" d="M119,2h59.46c-7.72,0-11.57,5.92-15.31,11.65s-7.28,11.17-14.44,11.17S138.05,19.4,134.3,13.65,126.72,2,119,2Z"/><path class="cls-1" d="M178.51,2H238c-7.71,0-11.57,5.92-15.31,11.65s-7.27,11.17-14.43,11.17-10.69-5.42-14.43-11.17S186.2,2,178.51,2Z"/><path class="cls-1" d="M238,2h59.44c-7.72,0-11.58,5.92-15.31,11.65s-7.28,11.17-14.43,11.17S257,19.4,253.27,13.65,245.68,2,238,2Z"/><path class="cls-1" d="M297.47,2h59.45c-7.72,0-11.57,5.92-15.3,11.65s-7.29,11.17-14.43,11.17-10.7-5.42-14.45-11.17S305.17,2,297.47,2Z"/><path class="cls-1" d="M357,2h59.46c-7.72,0-11.58,5.92-15.31,11.65s-7.29,11.17-14.44,11.17S376,19.4,372.22,13.65,364.65,2,357,2Z"/><path class="cls-1" d="M416.44,2h59.45c-7.72,0-11.58,5.92-15.31,11.65s-7.28,11.17-14.44,11.17-10.68-5.42-14.43-11.17S424.13,2,416.44,2Z"/><path class="cls-1" d="M475.92,2h59.44c-7.71,0-11.56,5.92-15.3,11.65s-7.28,11.17-14.43,11.17-10.7-5.42-14.44-11.17S483.62,2,475.92,2Z"/><path class="cls-1" d="M535.4,2h59.44c-7.72,0-11.58,5.92-15.3,11.65s-7.28,11.17-14.44,11.17-10.69-5.42-14.43-11.17S543.09,2,535.4,2Z"/><rect class="cls-1" width="1785" height="2"/></g></svg>