<svg xmlns="http://www.w3.org/2000/svg" viewBox="0 0 1785 23"><defs><style>.cls-1{fill:#fff;}</style></defs><title>battleship</title><g id="bg"><path class="cls-1" d="M1190,0h59.5c-7.72,0-11.58,5.92-15.31,11.65s-7.29,11.17-14.45,11.17-10.68-5.42-14.43-11.17S1197.72,0,1190,0Z"/><path class="cls-1" d="M1249.53,0H1309c-7.72,0-11.58,5.92-15.31,11.65s-7.28,11.17-14.44,11.17-10.69-5.42-14.44-11.17S1257.23,0,1249.53,0Z"/><path class="cls-1" d="M1309,0h59.46c-7.72,0-11.57,5.92-15.31,11.65s-7.28,11.17-14.44,11.17-10.68-5.42-14.43-11.17S1316.72,0,1309,0Z"/><path class="cls-1" d="M1368.51,0H1428c-7.71,0-11.57,5.92-15.31,11.65s-7.27,11.17-14.43,11.17-10.69-5.42-14.43-11.17S1376.2,0,1368.51,0Z"/><path class="cls-1" d="M1428,0h59.44c-7.72,0-11.58,5.92-15.31,11.65s-7.28,11.17-14.43,11.17S1447,17.4,1443.27,11.65,1435.68,0,1428,0Z"/><path class="cls-1" d="M1487.47,0h59.45c-7.72,0-11.57,5.92-15.3,11.65s-7.29,11.17-14.43,11.17-10.7-5.42-14.45-11.17S1495.17,0,1487.47,0Z"/><path class="cls-1" d="M1547,0h59.46c-7.72,0-11.58,5.92-15.31,11.65s-7.29,11.17-14.44,11.17S1566,17.4,1562.22,11.65,1554.65,0,1547,0Z"/><path class="cls-1" d="M1606.44,0h59.45c-7.72,0-11.58,5.92-15.31,11.65s-7.28,11.17-14.44,11.17-10.68-5.42-14.43-11.17S1614.13,0,1606.44,0Z"/><path class="cls-1" d="M1665.92,0h59.44c-7.71,0-11.56,5.92-15.3,11.65s-7.28,11.17-14.43,11.17-10.7-5.42-14.44-11.17S1673.62,0,1665.92,0Z"/><path class="cls-1" d="M1725.4,0h59.44c-7.72,0-11.58,5.92-15.3,11.65s-7.28,11.17-14.44,11.17-10.69-5.42-14.43-11.17S1733.09,0,1725.4,0Z"/><path class="cls-1" d="M595,0h59.5c-7.72,0-11.58,5.92-15.31,11.65s-7.29,11.17-14.45,11.17-10.68-5.42-14.43-11.17S602.72,0,595,0Z"/><path class="cls-1" d="M654.53,0H714c-7.72,0-11.58,5.92-15.31,11.65s-7.28,11.17-14.44,11.17S673.55,17.4,669.8,11.65,662.23,0,654.53,0Z"/><path class="cls-1" d="M714,0h59.46c-7.72,0-11.57,5.92-15.31,11.65s-7.28,11.17-14.44,11.17S733.05,17.4,729.3,11.65,721.72,0,714,0Z"/><path class="cls-1" d="M773.51,0H833c-7.71,0-11.57,5.92-15.31,11.65s-7.27,11.17-14.43,11.17-10.69-5.42-14.43-11.17S781.2,0,773.51,0Z"/><path class="cls-1" d="M833,0h59.44c-7.72,0-11.58,5.92-15.31,11.65s-7.28,11.17-14.43,11.17S852,17.4,848.27,11.65,840.68,0,833,0Z"/><path class="cls-1" d="M892.47,0h59.45c-7.72,0-11.57,5.92-15.3,11.65s-7.29,11.17-14.43,11.17-10.7-5.42-14.45-11.17S900.17,0,892.47,0Z"/><path class="cls-1" d="M952,0h59.46c-7.72,0-11.58,5.92-15.31,11.65s-7.29,11.17-14.44,11.17S971,17.4,967.22,11.65,959.65,0,952,0Z"/><path class="cls-1" d="M1011.44,0h59.45c-7.72,0-11.58,5.92-15.31,11.65s-7.28,11.17-14.44,11.17-10.68-5.42-14.43-11.17S1019.13,0,1011.44,0Z"/><path class="cls-1" d="M1070.92,0h59.44c-7.71,0-11.56,5.92-15.3,11.65s-7.28,11.17-14.43,11.17-10.7-5.42-14.44-11.17S1078.62,0,1070.92,0Z"/><path class="cls-1" d="M1130.4,0h59.44c-7.72,0-11.58,5.92-15.3,11.65s-7.28,11.17-14.44,11.17-10.69-5.42-14.43-11.17S1138.09,0,1130.4,0Z"/><path class="cls-1" d="M0,0H59.5C51.78,0,47.92,5.92,44.19,11.65S36.9,22.82,29.74,22.82,19.06,17.4,15.31,11.65,7.72,0,0,0Z"/><path class="cls-1" d="M59.53,0H119c-7.72,0-11.58,5.92-15.31,11.65S96.4,22.82,89.24,22.82,78.55,17.4,74.8,11.65,67.23,0,59.53,0Z"/><path class="cls-1" d="M119,0h59.46c-7.72,0-11.57,5.92-15.31,11.65s-7.28,11.17-14.44,11.17S138.05,17.4,134.3,11.65,126.72,0,119,0Z"/><path class="cls-1" d="M178.51,0H238c-7.71,0-11.57,5.92-15.31,11.65s-7.27,11.17-14.43,11.17-10.69-5.42-14.43-11.17S186.2,0,178.51,0Z"/><path class="cls-1" d="M238,0h59.44c-7.72,0-11.58,5.92-15.31,11.65s-7.28,11.17-14.43,11.17S257,17.4,253.27,11.65,245.68,0,238,0Z"/><path class="cls-1" d="M297.47,0h59.45c-7.72,0-11.57,5.92-15.3,11.65s-7.29,11.17-14.43,11.17-10.7-5.42-14.45-11.17S305.17,0,297.47,0Z"/><path class="cls-1" d="M357,0h59.46c-7.72,0-11.58,5.92-15.31,11.65s-7.29,11.17-14.44,11.17S376,17.4,372.22,11.65,364.65,0,357,0Z"/><path class="cls-1" d="M416.44,0h59.45c-7.72,0-11.58,5.92-15.31,11.65s-7.28,11.17-14.44,11.17-10.68-5.42-14.43-11.17S424.13,0,416.44,0Z"/><path class="cls-1" d="M475.92,0h59.44c-7.71,0-11.56,5.92-15.3,11.65s-7.28,11.17-14.43,11.17-10.7-5.42-14.44-11.17S483.62,0,475.92,0Z"/><path class="cls-1" d="M535.4,0h59.44c-7.72,0-11.58,5.92-15.3,11.65s-7.28,11.17-14.44,11.17-10.69-5.42-14.43-11.17S543.09,0,535.4,0Z"/></g></svg>